<svg width="12" height="12" viewBox="0 0 12 12" fill="none" xmlns="http://www.w3.org/2000/svg">
<path d="M11.4882 9.50862L9.47888 7.49933L7.93338 6.86081C8.448 6.12902 8.7237 5.25597 8.72268 4.36134C8.72268 1.95648 6.7662 0 4.36134 0C1.95648 0 0 1.95648 0 4.36134C0 6.7662 1.95648 8.72268 4.36134 8.72268C5.26375 8.72372 6.14401 8.44326 6.8795 7.92037L7.51635 9.46171L9.52557 11.4711C9.65443 11.6 9.8074 11.7022 9.97577 11.7719C10.1441 11.8417 10.3246 11.8776 10.5068 11.8776C10.6891 11.8776 10.8695 11.8417 11.0379 11.772C11.2063 11.7022 11.3592 11.6 11.4881 11.4712C11.617 11.3423 11.7192 11.1893 11.7889 11.021C11.8587 10.8526 11.8946 10.6721 11.8946 10.4899C11.8946 10.3077 11.8587 10.1272 11.789 9.95884C11.7192 9.79047 11.617 9.63748 11.4882 9.50862ZM0.792971 4.36134C0.792971 2.39378 2.39378 0.792971 4.36134 0.792971C6.3289 0.792971 7.92971 2.39378 7.92971 4.36134C7.92971 6.3289 6.3289 7.92971 4.36134 7.92971C2.39378 7.92971 0.792971 6.3289 0.792971 4.36134ZM10.9274 10.9104C10.8158 11.0217 10.6645 11.0843 10.5069 11.0843C10.3492 11.0843 10.198 11.0217 10.0863 10.9104L8.18884 9.01291L7.59674 7.57974L9.02996 8.17184L10.9275 10.0693C11.0388 10.181 11.1013 10.3322 11.1013 10.4899C11.1013 10.6475 11.0388 10.7988 10.9274 10.9104Z" fill="white"/>
</svg>
